<svg
  xmlns="http://www.w3.org/2000/svg"
  width="770px"
  height="362px"
  viewBox="0 0 770 362"
  xmlns:xlink="http://www.w3.org/1999/xlink"
  style="overflow: hidden; display: block; width: 770px; height: 362px"
>
  <defs>
    <path
      d="M 16,-8 L 16,8 M 6,-8 L 6,8 Z"
      stroke="rgb(51,102,153)"
      stroke-opacity="1"
      stroke-width="1"
      stroke-linecap="butt"
      stroke-linejoin="miter"
      stroke-miterlimit="10"
      id="ygc95_0"
    />
    <g id="ygc95_1">
      <circle
        fill="#fff"
        stroke="rgb(51,102,153)"
        stroke-opacity="1"
        stroke-width="1"
        stroke-linecap="butt"
        stroke-linejoin="miter"
        stroke-miterlimit="10"
        r="5"
        cx="15"
        cy="0"
      />
      <path
        d="M 6,-8 L 6,8"
        stroke="rgb(51,102,153)"
        stroke-opacity="1"
        stroke-width="1"
        stroke-linecap="butt"
        stroke-linejoin="miter"
        stroke-miterlimit="10"
      />
    </g>
    <path
      d="M 15,8 L 15,-8 M 10,0 L -2,8 M 10,0 L -2,0 M 10,0 L -2,-8"
      stroke="rgb(51,102,153)"
      stroke-opacity="1"
      stroke-width="1"
      stroke-linecap="butt"
      stroke-linejoin="miter"
      stroke-miterlimit="10"
      id="ygc95_2"
    />
    <g id="ygc95_3">
      <circle
        fill="#fff"
        stroke="rgb(51,102,153)"
        stroke-opacity="1"
        stroke-width="1"
        stroke-linecap="butt"
        stroke-linejoin="miter"
        stroke-miterlimit="10"
        r="5"
        cx="15"
        cy="0"
      />
      <path
        d="M 6,-8 L 6,8"
        stroke="rgb(51,102,153)"
        stroke-opacity="1"
        stroke-width="1"
        stroke-linecap="butt"
        stroke-linejoin="miter"
        stroke-miterlimit="10"
      />
    </g>
    <g id="ygc95_4">
      <circle
        fill="#fff"
        stroke="rgb(51,102,153)"
        stroke-opacity="1"
        stroke-width="1"
        stroke-linecap="butt"
        stroke-linejoin="miter"
        stroke-miterlimit="10"
        r="5"
        cx="15"
        cy="0"
      />
      <path
        d="M 6,-8 L 6,8"
        stroke="rgb(51,102,153)"
        stroke-opacity="1"
        stroke-width="1"
        stroke-linecap="butt"
        stroke-linejoin="miter"
        stroke-miterlimit="10"
      />
    </g>
    <path
      d="M 15,8 L 15,-8 M 10,0 L -2,8 M 10,0 L -2,0 M 10,0 L -2,-8"
      stroke="rgb(51,102,153)"
      stroke-opacity="1"
      stroke-width="1"
      stroke-linecap="butt"
      stroke-linejoin="miter"
      stroke-miterlimit="10"
      id="ygc95_5"
    />
    <path
      d="M 15,8 L 15,-8 M 10,0 L -2,8 M 10,0 L -2,0 M 10,0 L -2,-8"
      stroke="rgb(51,102,153)"
      stroke-opacity="1"
      stroke-width="1"
      stroke-linecap="butt"
      stroke-linejoin="miter"
      stroke-miterlimit="10"
      id="ygc95_6"
    />
    <g id="ygc95_7">
      <circle
        fill="#fff"
        stroke="rgb(51,102,153)"
        stroke-opacity="1"
        stroke-width="1"
        stroke-linecap="butt"
        stroke-linejoin="miter"
        stroke-miterlimit="10"
        r="5"
        cx="15"
        cy="0"
      />
      <path
        d="M 6,-8 L 6,8"
        stroke="rgb(51,102,153)"
        stroke-opacity="1"
        stroke-width="1"
        stroke-linecap="butt"
        stroke-linejoin="miter"
        stroke-miterlimit="10"
      />
    </g>
  </defs>
  <g
    style="pointer-events: visiblePainted"
    transform="translate(25 347.25)"
    image-rendering="auto"
    shape-rendering="auto"
  >
    <g>
      <path
        fill="none"
        stroke="rgb(51,102,153)"
        d="M 150,-250 L 190,-250"
        stroke-opacity="1"
        stroke-width="1"
        stroke-linecap="butt"
        stroke-linejoin="miter"
        stroke-miterlimit="10"
      />
      <use xlink:href="#ygc95_0" transform="matrix(-0.75 0 0 -0.75 190 -250)" />
      <use xlink:href="#ygc95_1" transform="matrix(0.75 0 0 0.75 150 -250)" />
    </g>
    <g>
      <path
        fill="none"
        stroke="rgb(51,102,153)"
        d="M 340,-250 L 570,-250"
        stroke-opacity="1"
        stroke-width="1"
        stroke-linecap="butt"
        stroke-linejoin="miter"
        stroke-miterlimit="10"
      />
      <use xlink:href="#ygc95_2" transform="matrix(-0.75 0 0 -0.75 570 -250)" />
      <use xlink:href="#ygc95_3" transform="matrix(0.75 0 0 0.75 340 -250)" />
    </g>
    <g>
      <path
        fill="none"
        stroke="rgb(51,102,153)"
        d="M 265,-185 L 265,-122.5 L 380,-122.5"
        stroke-opacity="1"
        stroke-width="1"
        stroke-linecap="butt"
        stroke-linejoin="miter"
        stroke-miterlimit="10"
      />
      <use xlink:href="#ygc95_4" transform="matrix(-0.75 0 0 -0.75 380 -122.5)" />
      <use xlink:href="#ygc95_5" transform="matrix(0 0.75 -0.75 0 265 -185)" />
    </g>
    <g>
      <path
        fill="none"
        stroke="rgb(51,102,153)"
        d="M 530,-122.5 L 645,-122.5 L 645,-185"
        stroke-opacity="1"
        stroke-width="1"
        stroke-linecap="butt"
        stroke-linejoin="miter"
        stroke-miterlimit="10"
      />
      <use xlink:href="#ygc95_6" transform="matrix(0 0.75 -0.75 0 645 -185)" />
      <use xlink:href="#ygc95_7" transform="matrix(0.75 0 0 0.75 530 -122.5)" />
    </g>
    <g transform="translate(0 -322.5)">
      <path d="M 0,10 Q 0,0 10,0 L 140,0 Q 150,0 150,10 L 150,24 L 0,24 Z" fill="rgb(183,201,227)" fill-opacity="1" />
      <path
        d="M 150,24 L 150,135 Q 150,145 140,145 L 10,145 Q 0,145 0,135 L 0,24 Z"
        fill="rgb(232,238,247)"
        fill-opacity="1"
      />
      <path
        d="M 0,10 Q 0,0 10,0 L 140,0 Q 150,0 150,10 L 150,135 Q 150,145 140,145 L 10,145 Q 0,145 0,135 Z M 0,24 L 150,24"
        fill="none"
        stroke="rgb(0,0,0)"
        stroke-opacity="1"
        stroke-width="1"
        stroke-linecap="butt"
        stroke-linejoin="miter"
        stroke-miterlimit="10"
      />
      <g transform="translate(0 5)">
        <text
          font-family="'Arial'"
          font-size="12px"
          font-style="normal"
          font-weight="normal"
          text-decoration="none"
          text-anchor="middle"
          fill="rgb(0,0,0)"
          fill-opacity="1"
          transform="translate(75 0)"
        >
          <tspan dy="0.9166666666666666em" x="0">account</tspan>
        </text>
      </g>
      <g transform="translate(5 26)">
        <text
          font-family="'Arial'"
          font-size="12px"
          font-style="normal"
          font-weight="normal"
          text-decoration="none"
          text-anchor="start"
          fill="rgb(0,0,0)"
          fill-opacity="1"
          transform="translate(0 1)"
        >
          <tspan dy="0.9166666666666666em" x="0">id</tspan>
        </text>
      </g>
      <g transform="translate(5 42)">
        <text
          font-family="'Arial'"
          font-size="12px"
          font-style="normal"
          font-weight="normal"
          text-decoration="none"
          text-anchor="start"
          fill="rgb(0,0,0)"
          fill-opacity="1"
          transform="translate(0 1)"
        >
          <tspan dy="0.9166666666666666em" x="0">email</tspan>
        </text>
      </g>
      <g transform="translate(5 58)">
        <text
          font-family="'Arial'"
          font-size="12px"
          font-style="normal"
          font-weight="normal"
          text-decoration="none"
          text-anchor="start"
          fill="rgb(0,0,0)"
          fill-opacity="1"
          transform="translate(0 1)"
        >
          <tspan dy="0.9166666666666666em" x="0">password</tspan>
        </text>
      </g>
      <g transform="translate(5 74)">
        <text
          font-family="'Arial'"
          font-size="12px"
          font-style="normal"
          font-weight="normal"
          text-decoration="none"
          text-anchor="start"
          fill="rgb(0,0,0)"
          fill-opacity="1"
          transform="translate(0 1)"
        >
          <tspan dy="0.9166666666666666em" x="0">name</tspan>
        </text>
      </g>
      <g transform="translate(5 90)">
        <text
          font-family="'Arial'"
          font-size="12px"
          font-style="normal"
          font-weight="normal"
          text-decoration="none"
          text-anchor="start"
          fill="rgb(0,0,0)"
          fill-opacity="1"
          transform="translate(0 1)"
        >
          <tspan dy="0.9166666666666666em" x="0">image</tspan>
        </text>
      </g>
      <g transform="translate(5 106)">
        <text
          font-family="'Arial'"
          font-size="12px"
          font-style="normal"
          font-weight="normal"
          text-decoration="none"
          text-anchor="start"
          fill="rgb(0,0,0)"
          fill-opacity="1"
          transform="translate(0 1)"
        >
          <tspan dy="0.9166666666666666em" x="0">created</tspan>
        </text>
      </g>
      <g transform="translate(5 122)">
        <text
          font-family="'Arial'"
          font-size="12px"
          font-style="normal"
          font-weight="normal"
          text-decoration="none"
          text-anchor="start"
          fill="rgb(0,0,0)"
          fill-opacity="1"
          transform="translate(0 1)"
        >
          <tspan dy="0.9166666666666666em" x="0">updated</tspan>
        </text>
      </g>
    </g>
    <g transform="translate(190 -315)">
      <path d="M 0,10 Q 0,0 10,0 L 140,0 Q 150,0 150,10 L 150,24 L 0,24 Z" fill="rgb(183,201,227)" fill-opacity="1" />
      <path
        d="M 150,24 L 150,120 Q 150,130 140,130 L 10,130 Q 0,130 0,120 L 0,24 Z"
        fill="rgb(232,238,247)"
        fill-opacity="1"
      />
      <path
        d="M 0,10 Q 0,0 10,0 L 140,0 Q 150,0 150,10 L 150,120 Q 150,130 140,130 L 10,130 Q 0,130 0,120 Z M 0,24 L 150,24"
        fill="none"
        stroke="rgb(0,0,0)"
        stroke-opacity="1"
        stroke-width="1"
        stroke-linecap="butt"
        stroke-linejoin="miter"
        stroke-miterlimit="10"
      />
      <g transform="translate(0 5)">
        <text
          font-family="'Arial'"
          font-size="12px"
          font-style="normal"
          font-weight="normal"
          text-decoration="none"
          text-anchor="middle"
          fill="rgb(0,0,0)"
          fill-opacity="1"
          transform="translate(75 0)"
        >
          <tspan dy="0.9166666666666666em" x="0">artist</tspan>
        </text>
      </g>
      <g transform="translate(5 26)">
        <text
          font-family="'Arial'"
          font-size="12px"
          font-style="normal"
          font-weight="normal"
          text-decoration="none"
          text-anchor="start"
          fill="rgb(0,0,0)"
          fill-opacity="1"
          transform="translate(0 1)"
        >
          <tspan dy="0.9166666666666666em" x="0">id</tspan>
        </text>
      </g>
      <g transform="translate(5 42)">
        <text
          font-family="'Arial'"
          font-size="12px"
          font-style="normal"
          font-weight="normal"
          text-decoration="none"
          text-anchor="start"
          fill="rgb(0,0,0)"
          fill-opacity="1"
          transform="translate(0 1)"
        >
          <tspan dy="0.9166666666666666em" x="0">website</tspan>
        </text>
      </g>
      <g transform="translate(5 58)">
        <text
          font-family="'Arial'"
          font-size="12px"
          font-style="normal"
          font-weight="normal"
          text-decoration="none"
          text-anchor="start"
          fill="rgb(0,0,0)"
          fill-opacity="1"
          transform="translate(0 1)"
        >
          <tspan dy="0.9166666666666666em" x="0">instagram</tspan>
        </text>
      </g>
      <g transform="translate(5 74)">
        <text
          font-family="'Arial'"
          font-size="12px"
          font-style="normal"
          font-weight="normal"
          text-decoration="none"
          text-anchor="start"
          fill="rgb(0,0,0)"
          fill-opacity="1"
          transform="translate(0 1)"
        >
          <tspan dy="0.9166666666666666em" x="0">facebook</tspan>
        </text>
      </g>
      <g transform="translate(5 90)">
        <text
          font-family="'Arial'"
          font-size="12px"
          font-style="normal"
          font-weight="normal"
          text-decoration="none"
          text-anchor="start"
          fill="rgb(0,0,0)"
          fill-opacity="1"
          transform="translate(0 1)"
        >
          <tspan dy="0.9166666666666666em" x="0">created</tspan>
        </text>
      </g>
      <g transform="translate(5 106)">
        <text
          font-family="'Arial'"
          font-size="12px"
          font-style="normal"
          font-weight="normal"
          text-decoration="none"
          text-anchor="start"
          fill="rgb(0,0,0)"
          fill-opacity="1"
          transform="translate(0 1)"
        >
          <tspan dy="0.9166666666666666em" x="0">updated</tspan>
        </text>
      </g>
    </g>
    <g transform="translate(380 -235)">
      <path d="M 0,10 Q 0,0 10,0 L 140,0 Q 150,0 150,10 L 150,24 L 0,24 Z" fill="rgb(183,201,227)" fill-opacity="1" />
      <path
        d="M 150,24 L 150,215 Q 150,225 140,225 L 10,225 Q 0,225 0,215 L 0,24 Z"
        fill="rgb(232,238,247)"
        fill-opacity="1"
      />
      <path
        d="M 0,10 Q 0,0 10,0 L 140,0 Q 150,0 150,10 L 150,215 Q 150,225 140,225 L 10,225 Q 0,225 0,215 Z M 0,24 L 150,24"
        fill="none"
        stroke="rgb(0,0,0)"
        stroke-opacity="1"
        stroke-width="1"
        stroke-linecap="butt"
        stroke-linejoin="miter"
        stroke-miterlimit="10"
      />
      <g transform="translate(0 5)">
        <text
          font-family="'Arial'"
          font-size="12px"
          font-style="normal"
          font-weight="normal"
          text-decoration="none"
          text-anchor="middle"
          fill="rgb(0,0,0)"
          fill-opacity="1"
          transform="translate(75 0)"
        >
          <tspan dy="0.9166666666666666em" x="0">studio</tspan>
        </text>
      </g>
      <g transform="translate(5 26)">
        <text
          font-family="'Arial'"
          font-size="12px"
          font-style="normal"
          font-weight="normal"
          text-decoration="none"
          text-anchor="start"
          fill="rgb(0,0,0)"
          fill-opacity="1"
          transform="translate(0 1)"
        >
          <tspan dy="0.9166666666666666em" x="0">id</tspan>
        </text>
      </g>
      <g transform="translate(5 42)">
        <text
          font-family="'Arial'"
          font-size="12px"
          font-style="normal"
          font-weight="normal"
          text-decoration="none"
          text-anchor="start"
          fill="rgb(0,0,0)"
          fill-opacity="1"
          transform="translate(0 1)"
        >
          <tspan dy="0.9166666666666666em" x="0">name</tspan>
        </text>
      </g>
      <g transform="translate(5 58)">
        <text
          font-family="'Arial'"
          font-size="12px"
          font-style="normal"
          font-weight="normal"
          text-decoration="none"
          text-anchor="start"
          fill="rgb(0,0,0)"
          fill-opacity="1"
          transform="translate(0 1)"
        >
          <tspan dy="0.9166666666666666em" x="0">image</tspan>
        </text>
      </g>
      <g transform="translate(5 74)">
        <text
          font-family="'Arial'"
          font-size="12px"
          font-style="normal"
          font-weight="normal"
          text-decoration="none"
          text-anchor="start"
          fill="rgb(0,0,0)"
          fill-opacity="1"
          transform="translate(0 1)"
        >
          <tspan dy="0.9166666666666666em" x="0">website</tspan>
        </text>
      </g>
      <g transform="translate(5 90)">
        <text
          font-family="'Arial'"
          font-size="12px"
          font-style="normal"
          font-weight="normal"
          text-decoration="none"
          text-anchor="start"
          fill="rgb(0,0,0)"
          fill-opacity="1"
          transform="translate(0 1)"
        >
          <tspan dy="0.9166666666666666em" x="0">instagram</tspan>
        </text>
      </g>
      <g transform="translate(5 106)">
        <text
          font-family="'Arial'"
          font-size="12px"
          font-style="normal"
          font-weight="normal"
          text-decoration="none"
          text-anchor="start"
          fill="rgb(0,0,0)"
          fill-opacity="1"
          transform="translate(0 1)"
        >
          <tspan dy="0.9166666666666666em" x="0">facebook</tspan>
        </text>
      </g>
      <g transform="translate(5 122)">
        <text
          font-family="'Arial'"
          font-size="12px"
          font-style="normal"
          font-weight="normal"
          text-decoration="none"
          text-anchor="start"
          fill="rgb(0,0,0)"
          fill-opacity="1"
          transform="translate(0 1)"
        >
          <tspan dy="0.9166666666666666em" x="0">phone</tspan>
        </text>
      </g>
      <g transform="translate(5 138)">
        <text
          font-family="'Arial'"
          font-size="12px"
          font-style="normal"
          font-weight="normal"
          text-decoration="none"
          text-anchor="start"
          fill="rgb(0,0,0)"
          fill-opacity="1"
          transform="translate(0 1)"
        >
          <tspan dy="0.9166666666666666em" x="0">address</tspan>
        </text>
      </g>
      <g transform="translate(5 154)">
        <text
          font-family="'Arial'"
          font-size="12px"
          font-style="normal"
          font-weight="normal"
          text-decoration="none"
          text-anchor="start"
          fill="rgb(0,0,0)"
          fill-opacity="1"
          transform="translate(0 1)"
        >
          <tspan dy="0.9166666666666666em" x="0">location</tspan>
        </text>
      </g>
      <g transform="translate(5 170)">
        <text
          font-family="'Arial'"
          font-size="12px"
          font-style="normal"
          font-weight="normal"
          text-decoration="none"
          text-anchor="start"
          fill="rgb(0,0,0)"
          fill-opacity="1"
          transform="translate(0 1)"
        >
          <tspan dy="0.9166666666666666em" x="0">about</tspan>
        </text>
      </g>
      <g transform="translate(5 186)">
        <text
          font-family="'Arial'"
          font-size="12px"
          font-style="normal"
          font-weight="normal"
          text-decoration="none"
          text-anchor="start"
          fill="rgb(0,0,0)"
          fill-opacity="1"
          transform="translate(0 1)"
        >
          <tspan dy="0.9166666666666666em" x="0">created</tspan>
        </text>
      </g>
      <g transform="translate(5 202)">
        <text
          font-family="'Arial'"
          font-size="12px"
          font-style="normal"
          font-weight="normal"
          text-decoration="none"
          text-anchor="start"
          fill="rgb(0,0,0)"
          fill-opacity="1"
          transform="translate(0 1)"
        >
          <tspan dy="0.9166666666666666em" x="0">updated</tspan>
        </text>
      </g>
    </g>
    <g transform="translate(570 -315)">
      <path d="M 0,10 Q 0,0 10,0 L 140,0 Q 150,0 150,10 L 150,24 L 0,24 Z" fill="rgb(183,201,227)" fill-opacity="1" />
      <path
        d="M 150,24 L 150,120 Q 150,130 140,130 L 10,130 Q 0,130 0,120 L 0,24 Z"
        fill="rgb(232,238,247)"
        fill-opacity="1"
      />
      <path
        d="M 0,10 Q 0,0 10,0 L 140,0 Q 150,0 150,10 L 150,120 Q 150,130 140,130 L 10,130 Q 0,130 0,120 Z M 0,24 L 150,24"
        fill="none"
        stroke="rgb(0,0,0)"
        stroke-opacity="1"
        stroke-width="1"
        stroke-linecap="butt"
        stroke-linejoin="miter"
        stroke-miterlimit="10"
      />
      <g transform="translate(0 5)">
        <text
          font-family="'Arial'"
          font-size="12px"
          font-style="normal"
          font-weight="normal"
          text-decoration="none"
          text-anchor="middle"
          fill="rgb(0,0,0)"
          fill-opacity="1"
          transform="translate(75 0)"
        >
          <tspan dy="0.9166666666666666em" x="0">tattoo</tspan>
        </text>
      </g>
      <g transform="translate(5 26)">
        <text
          font-family="'Arial'"
          font-size="12px"
          font-style="normal"
          font-weight="normal"
          text-decoration="none"
          text-anchor="start"
          fill="rgb(0,0,0)"
          fill-opacity="1"
          transform="translate(0 1)"
        >
          <tspan dy="0.9166666666666666em" x="0">id</tspan>
        </text>
      </g>
      <g transform="translate(5 42)">
        <text
          font-family="'Arial'"
          font-size="12px"
          font-style="normal"
          font-weight="normal"
          text-decoration="none"
          text-anchor="start"
          fill="rgb(0,0,0)"
          fill-opacity="1"
          transform="translate(0 1)"
        >
          <tspan dy="0.9166666666666666em" x="0">image</tspan>
        </text>
      </g>
      <g transform="translate(5 58)">
        <text
          font-family="'Arial'"
          font-size="12px"
          font-style="normal"
          font-weight="normal"
          text-decoration="none"
          text-anchor="start"
          fill="rgb(0,0,0)"
          fill-opacity="1"
          transform="translate(0 1)"
        >
          <tspan dy="0.9166666666666666em" x="0">width</tspan>
        </text>
      </g>
      <g transform="translate(5 74)">
        <text
          font-family="'Arial'"
          font-size="12px"
          font-style="normal"
          font-weight="normal"
          text-decoration="none"
          text-anchor="start"
          fill="rgb(0,0,0)"
          fill-opacity="1"
          transform="translate(0 1)"
        >
          <tspan dy="0.9166666666666666em" x="0">height</tspan>
        </text>
      </g>
      <g transform="translate(5 90)">
        <text
          font-family="'Arial'"
          font-size="12px"
          font-style="normal"
          font-weight="normal"
          text-decoration="none"
          text-anchor="start"
          fill="rgb(0,0,0)"
          fill-opacity="1"
          transform="translate(0 1)"
        >
          <tspan dy="0.9166666666666666em" x="0">created</tspan>
        </text>
      </g>
      <g transform="translate(5 106)">
        <text
          font-family="'Arial'"
          font-size="12px"
          font-style="normal"
          font-weight="normal"
          text-decoration="none"
          text-anchor="start"
          fill="rgb(0,0,0)"
          fill-opacity="1"
          transform="translate(0 1)"
        >
          <tspan dy="0.9166666666666666em" x="0">updated</tspan>
        </text>
      </g>
    </g>
  </g>
</svg>
